<svg xmlns="http://www.w3.org/2000/svg" xmlns:xlink="http://www.w3.org/1999/xlink" viewBox="0 0 521.29 114.28"><defs><style>.cls-1{fill:#fff;}.cls-2{fill:url(#Degradado_sin_nombre_3);}.cls-3{fill:url(#Degradado_sin_nombre_2);}.cls-4{fill:url(#Degradado_sin_nombre_2-2);}</style><linearGradient id="Degradado_sin_nombre_3" x1="69.21" y1="70.52" x2="95.8" y2="35.28" gradientTransform="translate(19.27 0.9)" gradientUnits="userSpaceOnUse"><stop offset="0" stop-color="#78ba5c"/><stop offset="0.53" stop-color="#62bc97"/><stop offset="0.59" stop-color="#5fbc9f"/><stop offset="1" stop-color="#4dbecf"/></linearGradient><linearGradient id="Degradado_sin_nombre_2" x1="18.58" y1="84.03" x2="71.19" y2="9" gradientTransform="translate(19.27 0.9)" gradientUnits="userSpaceOnUse"><stop offset="0.34" stop-color="#4dbecf" stop-opacity="0.6"/><stop offset="0.77" stop-color="#fff"/></linearGradient><linearGradient id="Degradado_sin_nombre_2-2" x1="83.67" y1="104.87" x2="136.28" y2="29.85" xlink:href="#Degradado_sin_nombre_2"/></defs><g id="Capa_2" data-name="Capa 2"><g id="_01_-_Cuadrados_azules" data-name="01 - Cuadrados azules"><path class="cls-1" d="M214.17,113.94a30.57,30.57,0,0,1-14.34-3.09,20.4,20.4,0,0,1-9-9.5q-3.1-6.39-3.1-16.26t3.1-16.19a20.38,20.38,0,0,1,9-9.49,30.37,30.37,0,0,1,14.26-3.1,47.85,47.85,0,0,1,9.62,1,44.39,44.39,0,0,1,9,2.88V69a71,71,0,0,0-8.7-3.6A27.51,27.51,0,0,0,215.26,64a21.32,21.32,0,0,0-10.16,2.17A13.52,13.52,0,0,0,199,73q-2,4.61-2,12.13a30.61,30.61,0,0,0,2,12.12,13.73,13.73,0,0,0,6.07,6.86,20.28,20.28,0,0,0,9.78,2.18,33.8,33.8,0,0,0,5.61-.46,32.82,32.82,0,0,0,5.1-1.3V91.19H213.92V83.33h20.91v25.59a44.37,44.37,0,0,1-10,3.77A45.25,45.25,0,0,1,214.17,113.94Z"/><path class="cls-1" d="M265.69,114.28a22,22,0,0,1-10.75-2.51,16.9,16.9,0,0,1-7-7.45,26.64,26.64,0,0,1-2.47-12q0-11,5.15-16.6T264.94,70q6.78,0,11,3A16.89,16.89,0,0,1,282,81.45,36.85,36.85,0,0,1,283.76,94h-33l-.25-6.52h26.6L275,89.6q-.25-6.43-2.68-9.41c-1.62-2-4.15-3-7.61-3A11,11,0,0,0,259,78.6a8.58,8.58,0,0,0-3.55,4.69,27.07,27.07,0,0,0-1.22,9.07q0,7,3.27,10.67t9.61,3.63a26.34,26.34,0,0,0,5.32-.5,28.63,28.63,0,0,0,4.55-1.29,39,39,0,0,0,3.6-1.55v8.11a35.72,35.72,0,0,1-6.61,2A39.29,39.29,0,0,1,265.69,114.28Z"/><path class="cls-1" d="M302.58,113h-8.7V55.14h8.7Z"/><path class="cls-1" d="M333,114.28a22,22,0,0,1-10.75-2.51,16.85,16.85,0,0,1-7-7.45,26.64,26.64,0,0,1-2.47-12q0-11,5.14-16.6T332.27,70q6.78,0,11,3a17,17,0,0,1,6.06,8.41A37.1,37.1,0,0,1,351.09,94h-33l-.25-6.52h26.6l-2.09,2.09q-.26-6.43-2.68-9.41t-7.61-3a11,11,0,0,0-5.69,1.38,8.58,8.58,0,0,0-3.55,4.69,27.07,27.07,0,0,0-1.22,9.07q0,7,3.26,10.67t9.62,3.63a26.17,26.17,0,0,0,5.31-.5,28.46,28.46,0,0,0,4.56-1.29,39,39,0,0,0,3.6-1.55v8.11a35.72,35.72,0,0,1-6.61,2A39.29,39.29,0,0,1,333,114.28Z"/><path class="cls-1" d="M379.69,113.86a26.68,26.68,0,0,1-7.53-1.09,18.41,18.41,0,0,1-6.64-3.55,17,17,0,0,1-4.73-6.61A26.54,26.54,0,0,1,359,92.28a29.13,29.13,0,0,1,1.68-10.62,17,17,0,0,1,4.6-6.82A17.46,17.46,0,0,1,372,71.2a27.31,27.31,0,0,1,7.65-1.09,36.07,36.07,0,0,1,6.69.63,28.65,28.65,0,0,1,6.19,1.88v7.87a34.62,34.62,0,0,0-5.69-2,24.59,24.59,0,0,0-5.94-.71q-6.53,0-9.83,3.26t-3.3,10.54q0,7.53,3.14,11t10.24,3.47a22.54,22.54,0,0,0,6-.8,32.76,32.76,0,0,0,5.43-2v7.86a29.28,29.28,0,0,1-6.1,2A33.31,33.31,0,0,1,379.69,113.86Z"/><path class="cls-1" d="M417.66,114.11q-5.69,0-9-3t-3.3-8.87V78.31h-6.78V71h6.78V59.32h9V71h10.21v7.28H414.4v22.17a7.54,7.54,0,0,0,1.05,4.39c.69,1,2,1.46,3.89,1.46a11.15,11.15,0,0,0,2.84-.38,9.77,9.77,0,0,0,2.43-1v7.78a14.47,14.47,0,0,1-3.39,1A19.79,19.79,0,0,1,417.66,114.11Z"/><path class="cls-1" d="M434.81,113V74.88a30.4,30.4,0,0,1,4-1.84A44.89,44.89,0,0,1,445.77,71a38.15,38.15,0,0,1,8.11-.88,14.72,14.72,0,0,1,3.43.34,13.26,13.26,0,0,1,2.26.75v7c-1.29-.17-2.63-.3-4-.38a36.43,36.43,0,0,0-4.18,0c-1.4.08-2.76.21-4.1.38s-2.57.33-3.68.5V113Z"/><path class="cls-1" d="M468.18,64.34V56.4h9.37v7.94Zm.25,48.68V71.28h8.78L477.3,113Z"/><path class="cls-1" d="M508.41,113.86a26.58,26.58,0,0,1-7.53-1.09,18.53,18.53,0,0,1-6.65-3.55,17.08,17.08,0,0,1-4.72-6.61,26.54,26.54,0,0,1-1.76-10.33,29.36,29.36,0,0,1,1.67-10.62,17.16,17.16,0,0,1,4.6-6.82,17.61,17.61,0,0,1,6.65-3.64,27.32,27.32,0,0,1,7.66-1.09,36.07,36.07,0,0,1,6.69.63,28.65,28.65,0,0,1,6.19,1.88v7.87a35,35,0,0,0-5.69-2,24.65,24.65,0,0,0-5.94-.71q-6.52,0-9.83,3.26t-3.3,10.54q0,7.53,3.14,11t10.24,3.47a22.46,22.46,0,0,0,6-.8,32.87,32.87,0,0,0,5.44-2v7.86a29.36,29.36,0,0,1-6.11,2A33.14,33.14,0,0,1,508.41,113.86Z"/><polygon class="cls-2" points="48.27 91.92 98.44 91.47 150.6 20.85 101.57 20.85 48.27 91.92"/><polygon class="cls-3" points="0 92.17 63.82 91.6 130.18 0 67.81 0 0 92.17"/><polygon class="cls-4" points="65.09 113.02 128.91 112.44 195.28 20.85 132.9 20.85 65.09 113.02"/></g></g></svg>