<svg xmlns="http://www.w3.org/2000/svg" xmlns:xlink="http://www.w3.org/1999/xlink" viewBox="0 0 486.71 91.68"><defs><style>.cls-1{fill:#fff;}.cls-2{fill:url(#Degradado_sin_nombre_10);}.cls-3{fill:url(#Degradado_sin_nombre_9);}.cls-4{fill:url(#Degradado_sin_nombre_10-2);}.cls-5{fill:url(#Degradado_sin_nombre_10-3);}.cls-6{fill:url(#Degradado_sin_nombre_10-4);}.cls-7{fill:url(#Degradado_sin_nombre_10-5);}</style><linearGradient id="Degradado_sin_nombre_10" x1="184.03" y1="6.77" x2="211.81" y2="6.77" gradientTransform="translate(320.46 71.01) rotate(180)" gradientUnits="userSpaceOnUse"><stop offset="0.15" stop-color="#4dbecf"/><stop offset="0.85" stop-color="#fff"/></linearGradient><linearGradient id="Degradado_sin_nombre_9" x1="54.71" y1="55.02" x2="60.53" y2="43.24" gradientUnits="userSpaceOnUse"><stop offset="0" stop-color="#da283d"/><stop offset="0.59" stop-color="#6b2777"/><stop offset="1" stop-color="#20279e"/></linearGradient><linearGradient id="Degradado_sin_nombre_10-2" x1="61.68" y1="58.47" x2="71.04" y2="39.9" gradientTransform="matrix(1, 0, 0, 1, 0, 0)" xlink:href="#Degradado_sin_nombre_10"/><linearGradient id="Degradado_sin_nombre_10-3" x1="26.93" y1="49.74" x2="61.6" y2="49.74" gradientTransform="matrix(1, 0, 0, 1, 0, 0)" xlink:href="#Degradado_sin_nombre_10"/><linearGradient id="Degradado_sin_nombre_10-4" x1="88.06" y1="6.77" x2="115.84" y2="6.77" xlink:href="#Degradado_sin_nombre_10"/><linearGradient id="Degradado_sin_nombre_10-5" x1="-56.01" y1="48.14" x2="-28.23" y2="48.14" gradientTransform="translate(363.21 101.49) rotate(180) scale(0.72 0.93)" xlink:href="#Degradado_sin_nombre_10"/></defs><g id="Capa_2" data-name="Capa 2"><g id="_01_-_Cuadrados_azules" data-name="01 - Cuadrados azules"><path class="cls-1" d="M427.93,91.68h-9.69V37.35h9.69Z"/><path class="cls-1" d="M409.52,91.62l-18.6-24.5,14.74-21,.07-9-42.08-.11V91.68l8.84-.06V46.07l23.32.1c.12,0-14.22,20.23-14.22,20.23l19.34,25.22Z"/><rect class="cls-1" x="108.65" y="37.09" width="36.62" height="8.95"/><rect class="cls-1" x="108.65" y="59.83" width="27.78" height="8.98"/><rect class="cls-2" x="108.65" y="59.74" width="27.78" height="8.98"/><polygon class="cls-1" points="145.27 82.92 145.27 82.59 108.65 82.59 108.65 91.49 139.56 91.49 145.27 82.92"/><polygon class="cls-1" points="190.77 82.69 168.5 82.69 168.5 37.19 159.59 37.19 159.59 91.68 184.82 91.61 190.77 82.69"/><rect class="cls-1" x="204.58" y="37.12" width="36.62" height="8.95"/><rect class="cls-1" x="204.58" y="59.86" width="27.86" height="8.98"/><polygon class="cls-1" points="241.21 82.73 241.21 82.62 204.58 82.62 204.58 91.52 235.34 91.52 241.21 82.73"/><path class="cls-1" d="M297.39,73.29a18.07,18.07,0,0,1-15.74,9.16,18.17,18.17,0,0,1-12.89-31.06A17.8,17.8,0,0,1,281.65,46a18,18,0,0,1,14.15,6.8l5.11-7.66a27.63,27.63,0,0,0-7-5.17,27.1,27.1,0,0,0-22.8-.74A27.09,27.09,0,0,0,256.62,53.7a26.8,26.8,0,0,0,0,21.08,27.09,27.09,0,0,0,14.45,14.45,26.93,26.93,0,0,0,24.36-1.64,26.46,26.46,0,0,0,9.3-9.15Z"/><path class="cls-1" d="M479.38,73.59a18.12,18.12,0,0,1-15.75,9.15,18.17,18.17,0,0,1-12.88-31.06,17.77,17.77,0,0,1,12.88-5.36,17.87,17.87,0,0,1,14.15,6.8l5.12-7.67a27.92,27.92,0,0,0-7-5.17,27.1,27.1,0,0,0-22.8-.74A27.09,27.09,0,0,0,438.6,54a26.8,26.8,0,0,0,0,21.08,27.09,27.09,0,0,0,14.45,14.45,26.83,26.83,0,0,0,10.58,2.16,27.19,27.19,0,0,0,13.78-3.8,26.38,26.38,0,0,0,9.3-9.15Z"/><polygon class="cls-1" points="347.2 46.02 353.16 37.09 309.06 37.09 309.06 46.01 327.28 46.03 327.28 91.57 336.18 91.57 336.18 46.03 347.2 46.02"/><rect class="cls-1" x="208.96" y="37.09" width="36.62" height="9.1"/><path class="cls-1" d="M66.65,37.3l-4.53,9.19,17.58-.11A83.32,83.32,0,0,1,74.57,59.1c-2.92,5.36-9.26,10.6-13.27,13a30.48,30.48,0,0,1-15.54,4.27,29.94,29.94,0,0,1-21.69-9,30.41,30.41,0,0,1,0-43.25,29.94,29.94,0,0,1,21.69-9A31,31,0,0,1,59.55,18.3a31.5,31.5,0,0,1,9.16,7.18l8.54-12.81A46.66,46.66,0,0,0,66.32,4.89,45.52,45.52,0,0,0,28,3.64a42.45,42.45,0,0,0-14.55,9.77A42.45,42.45,0,0,0,3.64,28a45,45,0,0,0,0,35.47A42.32,42.32,0,0,0,13.41,78,42.34,42.34,0,0,0,28,87.75a45.22,45.22,0,0,0,17.8,3.64A45.86,45.86,0,0,0,85.5,68.32a58.2,58.2,0,0,0,5.86-15.09c.9-4.35,2-16,2-16Z"/><polygon class="cls-3" points="40.36 58.52 57.36 58.4 75.03 39.45 58.42 39.45 40.36 58.52"/><polygon class="cls-4" points="48.8 61.91 65.79 61.76 83.46 37.37 66.86 37.37 48.8 61.91"/><polygon class="cls-5" points="26.93 62.02 43.93 61.86 61.6 37.47 44.99 37.47 26.93 62.02"/><rect class="cls-6" x="204.62" y="59.74" width="27.78" height="8.98"/><rect class="cls-7" x="383.48" y="52.45" width="19.95" height="8.37" transform="translate(121.22 346.29) rotate(-54.97)"/></g></g></svg>